<svg width="30" height="34" viewBox="0 0 30 34" fill="none" xmlns="http://www.w3.org/2000/svg">
<path d="M28.9182 11.4067C30.1792 14.5445 30.3429 18.0164 29.3827 21.259C28.4225 24.5016 26.3947 27.3246 23.6285 29.2698C20.8622 31.2151 17.5198 32.1686 14.1435 31.9755C12.7201 31.8941 11.326 31.6109 10 31.1421M18.3334 2.375C15.2493 1.67201 12.0157 1.96109 9.09794 3.2099C5.98896 4.54053 3.42085 6.88268 1.81031 9.85631C1.53705 10.3608 1.29408 10.8785 1.08183 11.4067C0.0431664 13.9912 -0.259542 16.8257 0.22558 19.5914C0.406937 20.6254 0.695092 21.6309 1.08183 22.5932" stroke="#6A4BFF" stroke-width="2.5" stroke-linecap="round"/>
<circle cx="21.6666" cy="3.66659" r="3.33333" stroke="#6A4BFF" stroke-width="2.5"/>
<circle cx="6.66658" cy="30.3333" r="3.33333" stroke="#6A4BFF" stroke-width="2.5"/>
<path d="M10.6671 13.685L14.3959 12.2349C14.7845 12.0838 15.2155 12.0838 15.6041 12.2349L19.3329 13.685C19.7351 13.8414 20 14.2286 20 14.6602V16.2491C20 18.4755 18.9721 20.5772 17.2147 21.9441C15.912 22.9572 14.088 22.9572 12.7853 21.9441C11.0279 20.5772 10 18.4755 10 16.2491V14.6602C10 14.2286 10.2649 13.8414 10.6671 13.685Z" stroke="#6A4BFF" stroke-width="2.5" stroke-linecap="round" stroke-linejoin="round"/>
</svg>
