<svg width="34" height="28" viewBox="0 0 34 28" fill="none" xmlns="http://www.w3.org/2000/svg">
<path d="M6.99992 25.6667C2.85778 25.6667 0.333252 22.3088 0.333252 18.1667C0.333252 14.0246 3.69112 10.6667 7.83325 10.6667H8.66659V9.00002C8.66659 4.39765 12.3975 0.666687 16.9999 0.666687C21.6023 0.666687 25.3333 4.39765 25.3333 9.00002V10.6667H26.1666C30.3087 10.6667 33.6666 14.0246 33.6666 18.1667C33.6666 22.3088 31.1421 25.6667 26.9999 25.6667" stroke="#6A4BFF" stroke-width="2.5" stroke-linecap="round" stroke-linejoin="round"/>
<path d="M12 26.5001V19.8334C12 19.3732 12.3731 19.0001 12.8333 19.0001H21.1667C21.6269 19.0001 22 19.3732 22 19.8334V26.5001C22 26.9603 21.6269 27.3334 21.1667 27.3334H12.8333C12.3731 27.3334 12 26.9603 12 26.5001Z" stroke="#6A4BFF" stroke-width="2.5" stroke-linecap="round" stroke-linejoin="round"/>
<path d="M13.6665 19.0001V17.3334C13.6665 15.4924 15.1589 14.0001 16.9998 14.0001V14.0001C18.8408 14.0001 20.3332 15.4924 20.3332 17.3334V19.0001" stroke="#6A4BFF" stroke-width="2.5" stroke-linecap="round" stroke-linejoin="round"/>
</svg>
