<svg width="15" height="15" viewBox="0 0 15 15" fill="none" xmlns="http://www.w3.org/2000/svg">
<path d="M12.3979 5.27297L6.39795 11.273C6.34569 11.3254 6.28359 11.367 6.21522 11.3954C6.14685 11.4238 6.07354 11.4384 5.99951 11.4384C5.92548 11.4384 5.85217 11.4238 5.7838 11.3954C5.71543 11.367 5.65333 11.3254 5.60107 11.273L2.97607 8.64797C2.92375 8.59565 2.88224 8.53353 2.85393 8.46517C2.82561 8.3968 2.81104 8.32353 2.81104 8.24954C2.81104 8.17554 2.82561 8.10227 2.85393 8.0339C2.88224 7.96554 2.92375 7.90342 2.97607 7.8511C3.0284 7.79877 3.09051 7.75727 3.15888 7.72895C3.22724 7.70063 3.30051 7.68606 3.37451 7.68606C3.44851 7.68606 3.52178 7.70063 3.59014 7.72895C3.65851 7.75727 3.72062 7.79877 3.77295 7.8511L5.99998 10.0781L11.602 4.47703C11.7077 4.37136 11.851 4.312 12.0004 4.312C12.1499 4.312 12.2932 4.37136 12.3989 4.47703C12.5046 4.58271 12.5639 4.72603 12.5639 4.87547C12.5639 5.02492 12.5046 5.16824 12.3989 5.27391L12.3979 5.27297Z" fill="white"/>
</svg>
