<svg width="16" height="17" viewBox="0 0 16 17" fill="none" xmlns="http://www.w3.org/2000/svg">
<path d="M12.8245 8.92451L9.2245 12.5245C9.11178 12.6372 8.95891 12.7006 8.7995 12.7006C8.64009 12.7006 8.48722 12.6372 8.3745 12.5245C8.26178 12.4118 8.19846 12.2589 8.19846 12.0995C8.19846 11.9401 8.26178 11.7872 8.3745 11.6745L10.95 9.10001H3.6C3.44087 9.10001 3.28826 9.0368 3.17574 8.92428C3.06321 8.81176 3 8.65914 3 8.50001C3 8.34088 3.06321 8.18827 3.17574 8.07575C3.28826 7.96323 3.44087 7.90001 3.6 7.90001H10.95L8.3755 5.32401C8.26278 5.2113 8.19946 5.05842 8.19946 4.89901C8.19946 4.73961 8.26278 4.58673 8.3755 4.47401C8.48822 4.3613 8.64109 4.29797 8.8005 4.29797C8.95991 4.29797 9.11278 4.3613 9.2255 4.47401L12.8255 8.07401C12.8814 8.12983 12.9258 8.19615 12.9561 8.26916C12.9863 8.34218 13.0018 8.42044 13.0017 8.49947C13.0016 8.5785 12.9859 8.65673 12.9555 8.72967C12.9251 8.80261 12.8806 8.86883 12.8245 8.92451Z" fill="white"/>
</svg>
