<svg width="15" height="16" viewBox="0 0 15 16" fill="none" xmlns="http://www.w3.org/2000/svg">
<path d="M12.3979 5.77299L6.39795 11.773C6.34569 11.8254 6.28359 11.867 6.21522 11.8954C6.14685 11.9238 6.07354 11.9384 5.99951 11.9384C5.92548 11.9384 5.85217 11.9238 5.7838 11.8954C5.71543 11.867 5.65333 11.8254 5.60107 11.773L2.97607 9.14799C2.92375 9.09566 2.88224 9.03355 2.85393 8.96518C2.82561 8.89682 2.81104 8.82355 2.81104 8.74955C2.81104 8.67555 2.82561 8.60228 2.85393 8.53392C2.88224 8.46555 2.92375 8.40344 2.97607 8.35111C3.0284 8.29879 3.09051 8.25728 3.15888 8.22897C3.22724 8.20065 3.30051 8.18607 3.37451 8.18607C3.44851 8.18607 3.52178 8.20065 3.59014 8.22897C3.65851 8.25728 3.72062 8.29879 3.77295 8.35111L5.99998 10.5781L11.602 4.97705C11.7077 4.87138 11.851 4.81201 12.0004 4.81201C12.1499 4.81201 12.2932 4.87138 12.3989 4.97705C12.5046 5.08272 12.5639 5.22604 12.5639 5.37549C12.5639 5.52493 12.5046 5.66825 12.3989 5.77393L12.3979 5.77299Z" fill="white"/>
</svg>
