<svg width="15" height="16" viewBox="0 0 15 16" fill="none" xmlns="http://www.w3.org/2000/svg">
<path d="M12.3979 5.77297L6.39795 11.773C6.34569 11.8254 6.28359 11.867 6.21522 11.8954C6.14685 11.9238 6.07354 11.9384 5.99951 11.9384C5.92548 11.9384 5.85217 11.9238 5.7838 11.8954C5.71543 11.867 5.65333 11.8254 5.60107 11.773L2.97607 9.14797C2.92375 9.09565 2.88224 9.03353 2.85393 8.96517C2.82561 8.8968 2.81104 8.82353 2.81104 8.74954C2.81104 8.67554 2.82561 8.60227 2.85393 8.5339C2.88224 8.46554 2.92375 8.40342 2.97607 8.3511C3.0284 8.29877 3.09051 8.25727 3.15888 8.22895C3.22724 8.20063 3.30051 8.18606 3.37451 8.18606C3.44851 8.18606 3.52178 8.20063 3.59014 8.22895C3.65851 8.25727 3.72062 8.29877 3.77295 8.3511L5.99998 10.5781L11.602 4.97703C11.7077 4.87136 11.851 4.812 12.0004 4.812C12.1499 4.812 12.2932 4.87136 12.3989 4.97703C12.5046 5.08271 12.5639 5.22603 12.5639 5.37547C12.5639 5.52492 12.5046 5.66824 12.3989 5.77391L12.3979 5.77297Z" fill="white"/>
</svg>
